# xmcd CD database file
#
# Track frame offsets:
#	150
#	20033
#	40278
#	72440
#	100432
#	121554
#	144986
#	168900
#	188398
#	210548
#	236394
#	252835
#	269714
#
# Disc length: 4009 seconds
#
# Revision: 0
# Processed by: cddbd v1.5.1PL2 Copyright (c) Steve Scherf et al.
# Submitted via: CDex 1.51
#
DISCID=b10fa70d
DTITLE=Pepe Ahlqvist and UMO Jazz Orchestra - Mister Blues
DYEAR=2006
DGENRE=Blues
TTITLE0=Don't Stare At Me
TTITLE1=Shot From The Saddle
TTITLE2=Senor Blues
TTITLE3=Unfair World
TTITLE4=Heal Me With The Blues
TTITLE5=Come On Home
TTITLE6=Dancemaster
TTITLE7=A Cicada Of Chicago
TTITLE8=No More Affection
TTITLE9=Last Hope's Gone 
TTITLE10=T's and B's
TTITLE11=A Blues Disease
TTITLE12=So Excited
EXTD=YEAR: 2006
EXTT0=
EXTT1=
EXTT2=
EXTT3=
EXTT4=
EXTT5=
EXTT6=
EXTT7=
EXTT8=
EXTT9=
EXTT10=
EXTT11=
EXTT12=
PLAYORDER=
